<svg width="270" height="84" viewBox="0 0 270 84" fill="none" xmlns="http://www.w3.org/2000/svg">
<path d="M0 42C0 18.804 18.804 0 42 0H228C251.196 0 270 18.804 270 42C270 65.196 251.196 84 228 84H42C18.804 84 0 65.196 0 42Z" fill="#5222D0"/>
<path fill-rule="evenodd" clip-rule="evenodd" d="M198.437 27.5625C197.333 27.5625 196.438 28.4579 196.438 29.5625V54.306C196.438 55.4105 197.333 56.306 198.438 56.306H236.162C237.266 56.306 238.162 55.4105 238.162 54.306V39.6162H196.438V34.053H238.162V29.5625C238.162 28.4579 237.266 27.5625 236.162 27.5625H198.437Z" fill="white"/>
<path d="M42.52 54V44.655C43.325 44.655 44.095 44.655 44.935 44.515L50.325 54H57.29V53.02L50.64 42.24C55.505 39.125 55.365 34.505 55.365 29.5C53.195 29.5 51.06 29.5 48.925 29.5C48.925 34.085 49.24 38.775 42.975 38.775H42.52V29.5C40.35 29.5 38.25 29.5 36.15 29.5V54C38.25 54 40.35 54 42.52 54ZM62.4003 54H69.1553L80.7753 30.445V29.5H73.9853L69.7853 38.53H69.6103L64.9903 29.5H57.9903V30.445L66.2503 45.425L62.4003 53.335V54ZM104.577 29.5C88.4766 29.5 86.3066 29.5 84.2066 29.5V54C86.3066 54 88.4766 54 90.6116 54V35.275H98.1716V54C100.307 54 102.442 54 104.577 54V29.5ZM125.462 41.96V54C127.632 54 129.802 54 131.937 54V29.395H129.662L117.272 41.505V29.5C115.137 29.5 113.002 29.5 110.867 29.5V54.035H113.107L125.462 41.96ZM141.815 35.1V54C143.88 54 145.945 54 148.01 54V35.1H153.995C153.995 33.21 153.995 31.355 153.995 29.5H135.795C135.795 31.355 135.795 33.21 135.795 35.1H141.815ZM164.128 29.5C162.028 29.5 159.928 29.5 157.863 29.5C157.863 37.655 157.863 45.81 157.863 54C161.398 54 165.038 54 168.643 54C180.368 53.965 180.368 36.815 168.643 36.815H164.128V29.5ZM168.608 42.45C172.038 42.45 172.248 48.365 168.608 48.4C167.138 48.435 165.563 48.4 164.128 48.4C164.128 46.405 164.128 44.445 164.128 42.45H168.608Z" fill="white"/>
</svg>
