<svg width="115" height="38" viewBox="0 0 115 38" fill="none" xmlns="http://www.w3.org/2000/svg">
<rect width="115" height="38" rx="19" fill="#5222D0"/>
<circle cx="94" cy="15" r="4" stroke="white" stroke-width="2"/>
<path d="M89.6016 23.25L87.935 15.75H100.065L98.3984 23.25H89.6016Z" fill="white" stroke="white" stroke-width="1.5"/>
<path d="M19.536 24V20.529C19.835 20.529 20.121 20.529 20.433 20.477L22.435 24H25.022V23.636L22.552 19.632C24.359 18.475 24.307 16.759 24.307 14.9C23.501 14.9 22.708 14.9 21.915 14.9C21.915 16.603 22.032 18.345 19.705 18.345H19.536V14.9C18.73 14.9 17.95 14.9 17.17 14.9V24C17.95 24 18.73 24 19.536 24ZM35.1361 19.463C35.1361 13.171 25.8021 13.171 25.8021 19.463C25.8021 25.768 35.1361 25.768 35.1361 19.463ZM28.1941 19.463C28.1941 16.187 32.7571 16.187 32.7571 19.463C32.7571 22.765 28.1941 22.765 28.1941 19.463ZM39.2125 24V21.673H40.8895C45.2445 21.673 45.2445 14.913 40.8895 14.9C39.5505 14.9 38.1985 14.9 36.8855 14.9C36.8855 17.942 36.8855 20.971 36.8855 24C37.6525 24 38.4325 24 39.2125 24ZM40.8765 19.58H39.2125C39.2125 18.839 39.2125 17.721 39.2125 16.98C39.7455 16.98 40.3305 16.967 40.8765 16.98C42.2285 16.993 42.1505 19.58 40.8765 19.58ZM47.6409 17.188C47.6409 16.85 47.9399 16.655 48.4469 16.655C49.5389 16.655 49.5649 18.241 48.4209 18.241H47.8099V20.139H48.4469C50.0069 20.139 50.0069 22.206 48.4469 22.206C47.7709 22.206 47.3029 21.751 47.3029 21.036H45.2619C45.2619 23.077 46.4709 24.169 48.4469 24.169C50.7869 24.169 51.9569 22.921 51.9569 21.309C51.9569 20.282 51.5669 19.554 50.6439 19.06C51.1769 18.657 51.4369 17.968 51.4369 17.37C51.4369 16.044 50.4359 14.731 48.4469 14.731C46.8609 14.731 45.4959 15.511 45.5739 17.188H47.6409ZM59.1154 19.528V24C59.9214 24 60.7274 24 61.5204 24V14.861H60.6754L56.0734 19.359V14.9C55.2804 14.9 54.4874 14.9 53.6944 14.9V24.013H54.5264L59.1154 19.528ZM71.4294 14.9C70.6364 14.9 69.8434 14.9 69.0504 14.9V18.202H66.2424V14.9C65.4494 14.9 64.6434 14.9 63.8634 14.9V24C64.6434 24 65.4494 24 66.2424 24V20.347H69.0504V24C69.8434 24 70.6364 24 71.4294 24V14.9ZM79.5377 24H81.8127V23.662L77.7047 14.783H76.7037L72.6087 23.662V24H74.8837L75.4167 22.856H79.0047L79.5377 24ZM78.2507 20.867H76.1707L77.1977 18.475L78.2507 20.867Z" fill="white"/>
</svg>
