<svg width="135" height="38" viewBox="0 0 135 38" fill="none" xmlns="http://www.w3.org/2000/svg">
<rect width="135" height="38" rx="19" fill="#5222D0"/>
<path d="M24.736 14.9C18.756 14.9 17.95 14.9 17.17 14.9V24C17.95 24 18.756 24 19.549 24V17.045H22.357V24C23.15 24 23.943 24 24.736 24V14.9ZM35.8343 19.463C35.8343 13.171 26.5003 13.171 26.5003 19.463C26.5003 25.768 35.8343 25.768 35.8343 19.463ZM28.8923 19.463C28.8923 16.187 33.4553 16.187 33.4553 19.463C33.4553 22.765 28.8923 22.765 28.8923 19.463ZM38.3768 24.026H43.7588V25.027H45.6698V21.985H44.7208L41.4968 14.783H40.4958L37.3758 21.985H36.4528V25.027H38.3768V24.026ZM40.9898 18.67L42.3028 21.959H39.7288L40.9898 18.67ZM54.4176 14.9C48.4376 14.9 47.6316 14.9 46.8516 14.9V24C47.6316 24 48.4376 24 49.2306 24V17.045H52.0386V24C52.8316 24 53.6246 24 54.4176 24V14.9ZM62.175 19.528V24C62.981 24 63.787 24 64.58 24V14.861H63.735L59.133 19.359V14.9C58.34 14.9 57.547 14.9 56.754 14.9V24.013H57.586L62.175 19.528ZM66.3639 19.45C66.3769 22.544 68.7169 24.104 71.0309 24.091C72.9679 24.091 75.0089 23.077 75.3469 20.503C74.5539 20.503 73.8389 20.503 73.0589 20.503C72.8119 21.478 72.0189 21.972 71.0309 21.972C69.6529 21.959 68.7689 20.789 68.7689 19.45C68.7689 17.942 69.6659 16.915 71.0309 16.915C72.0059 16.915 72.6949 17.331 73.0199 18.254C73.8129 18.254 74.5149 18.254 75.3079 18.254C74.9569 15.823 72.9159 14.796 71.0309 14.796C68.7169 14.796 66.3769 16.356 66.3639 19.45ZM82.9147 24H85.1897V23.662L81.0817 14.783H80.0807L75.9857 23.662V24H78.2607L78.7937 22.856H82.3817L82.9147 24ZM81.6277 20.867H79.5477L80.5747 18.475L81.6277 20.867ZM87.1903 16.98V24C87.9573 24 88.7243 24 89.4913 24V16.98H91.7143C91.7143 16.278 91.7143 15.589 91.7143 14.9H84.9543C84.9543 15.589 84.9543 16.278 84.9543 16.98H87.1903ZM95.4781 14.9C94.6981 14.9 93.9181 14.9 93.1511 14.9C93.1511 17.929 93.1511 20.958 93.1511 24C94.4641 24 95.8161 24 97.1551 24C101.51 23.987 101.51 17.617 97.1551 17.617H95.4781V14.9ZM97.1421 19.71C98.4161 19.71 98.4941 21.907 97.1421 21.92C96.5961 21.933 96.0111 21.92 95.4781 21.92C95.4781 21.179 95.4781 20.451 95.4781 19.71H97.1421ZM101.632 19.45C101.645 22.544 103.985 24.104 106.299 24.091C108.236 24.091 110.277 23.077 110.615 20.503C109.822 20.503 109.107 20.503 108.327 20.503C108.08 21.478 107.287 21.972 106.299 21.972C104.921 21.959 104.037 20.789 104.037 19.45C104.037 17.942 104.934 16.915 106.299 16.915C107.274 16.915 107.963 17.331 108.288 18.254C109.081 18.254 109.783 18.254 110.576 18.254C110.225 15.823 108.184 14.796 106.299 14.796C103.985 14.796 101.645 16.356 101.632 19.45ZM111.5 23.662V24H114.1L115.66 21.322H116.869V24C117.649 24 118.442 24 119.196 24C119.196 20.971 119.196 17.942 119.196 14.9C117.883 14.9 116.531 14.9 115.205 14.9C111.63 14.913 110.98 19.216 113.281 20.776L111.5 23.662ZM115.205 19.229C113.944 19.229 113.879 16.993 115.205 16.98C115.751 16.967 116.323 16.98 116.869 16.98C116.869 17.721 116.869 18.501 116.869 19.229H115.205Z" fill="white"/>
</svg>
